<?xml version="1.0" encoding="UTF-8"?>
<svg id="Layer_1" xmlns="http://www.w3.org/2000/svg" viewBox="0 0 82.33 82.53">
  <defs>
    <style>
      .cls-1 {
        fill: #22b8a8;
      }

      .cls-2 {
        fill: #ffe499;
      }

      .cls-3 {
        fill: #fff;
      }

      .cls-4 {
        fill: #fe8c7c;
      }

      .cls-5 {
        fill: #75e7da;
      }

      .cls-6 {
        fill: #333;
      }
    </style>
  </defs>
  <g>
    <path class="cls-1" d="M37.17,28.62c-9.23,0-16.74,7.51-16.74,16.74s7.51,16.74,16.74,16.74,16.74-7.51,16.74-16.74-7.51-16.74-16.74-16.74ZM37.17,55.58c-5.63,0-10.21-4.58-10.21-10.22s4.58-10.21,10.21-10.21,10.22,4.58,10.22,10.21-4.58,10.22-10.22,10.22Z"/>
    <path class="cls-1" d="M37.17,19.64c-14.18,0-25.72,11.54-25.72,25.72s11.54,25.72,25.72,25.72,25.72-11.54,25.72-25.72-11.54-25.72-25.72-25.72ZM37.17,64.56c-10.59,0-19.2-8.61-19.2-19.2s8.61-19.2,19.2-19.2,19.2,8.61,19.2,19.2-8.61,19.2-19.2,19.2Z"/>
    <path class="cls-1" d="M37.17,37.61c-4.27,0-7.75,3.48-7.75,7.75s3.48,7.75,7.75,7.75,7.75-3.48,7.75-7.75-3.48-7.75-7.75-7.75Z"/>
    <path class="cls-1" d="M37.17,10.65C18.03,10.65,2.46,26.22,2.46,45.36s15.57,34.71,34.71,34.71,34.71-15.57,34.71-34.71S56.3,10.65,37.17,10.65ZM37.17,73.54c-15.54,0-28.18-12.64-28.18-28.18s12.64-28.18,28.18-28.18,28.18,12.64,28.18,28.18-12.64,28.18-28.18,28.18Z"/>
    <path class="cls-6" d="M37.17,8.19C16.67,8.19,0,24.87,0,45.36s16.67,37.17,37.17,37.17,37.17-16.67,37.17-37.17S57.66,8.19,37.17,8.19ZM37.17,80.07c-19.14,0-34.71-15.57-34.71-34.71S18.03,10.65,37.17,10.65s34.71,15.57,34.71,34.71-15.57,34.71-34.71,34.71Z"/>
    <path class="cls-6" d="M37.17,17.18c-15.54,0-28.18,12.64-28.18,28.18s12.64,28.18,28.18,28.18,28.18-12.64,28.18-28.18-12.64-28.18-28.18-28.18ZM37.17,71.08c-14.18,0-25.72-11.54-25.72-25.72s11.54-25.72,25.72-25.72,25.72,11.54,25.72,25.72-11.54,25.72-25.72,25.72Z"/>
    <path class="cls-6" d="M37.17,26.16c-10.59,0-19.2,8.61-19.2,19.2s8.61,19.2,19.2,19.2,19.2-8.61,19.2-19.2-8.61-19.2-19.2-19.2ZM37.17,62.1c-9.23,0-16.74-7.51-16.74-16.74s7.51-16.74,16.74-16.74,16.74,7.51,16.74,16.74-7.51,16.74-16.74,16.74Z"/>
    <path class="cls-6" d="M37.17,35.15c-5.63,0-10.21,4.58-10.21,10.21s4.58,10.22,10.21,10.22,10.22-4.58,10.22-10.22-4.58-10.21-10.22-10.21ZM37.17,53.11c-4.27,0-7.75-3.48-7.75-7.75s3.48-7.75,7.75-7.75,7.75,3.48,7.75,7.75-3.48,7.75-7.75,7.75Z"/>
  </g>
  <g>
    <path class="cls-3" d="M25.53,68.5c-.29-.25-.56-.29-1.12-.37-.68-.09-1.62-.21-2.57-.98-.13-.1-.24-.2-.35-.31-.9-.9-1.09-1.93-1.23-2.7-.14-.74-.22-1.15-.67-1.57-.41-.4-.79-.48-1.47-.59-.82-.13-1.94-.32-2.92-1.46-.83-.96-.97-1.95-1.08-2.68-.09-.61-.14-.89-.41-1.16h0c-.34-.34-.85-.5-1.38-.59l-3.04,12.14c.95.12,2.35.52,3.47,1.78.89,1.01,1.22,2.13,1.32,3.01l12.13-3.03c-.1-.61-.29-1.18-.68-1.51Z"/>
    <path class="cls-2" d="M15.67,54.73c.92.92,1.08,1.95,1.19,2.7.03.2.06.37.09.52L56.73,18.17l-3.52-3.52-25.71,25.71-9.78,9.78-3.59,3.59c.55.22,1.08.54,1.54,1h0Z"/>
    <path class="cls-2" d="M21.57,60.64c.79.79,1.1,1.64,1.28,2.36L62.2,23.64l-3.52-3.52L19.39,59.41c.65.16,1.4.46,2.12,1.17.02.02.04.04.05.05Z"/>
    <path class="cls-2" d="M24.42,65.34c.11.02.22.03.35.05.68.09,1.62.22,2.54,1,.61.52,1.01,1.15,1.27,1.82l3.6-3.6,9.78-9.78,25.71-25.71-3.52-3.52-39.74,39.74Z"/>
    <rect class="cls-5" x="61.67" y="7.94" width="4.98" height="20.46" transform="translate(5.94 50.69) rotate(-45)"/>
    <path class="cls-4" d="M78.02,11.3l-6.99-6.99c-2.06-2.06-5.42-2.06-7.48,0l-2.91,2.91,14.47,14.47,2.91-2.91c2.06-2.06,2.06-5.42,0-7.48Z"/>
    <path class="cls-6" d="M9.29,68.24l-1.6,6.39,6.39-1.6c-.1-.89-.43-2.01-1.32-3.01-1.12-1.26-2.52-1.66-3.47-1.78Z"/>
    <path class="cls-6" d="M79.97,9.35l-6.99-6.99c-3.14-3.14-8.25-3.14-11.39,0l-3.89,3.89-5.47,5.47-26.69,26.69-9.78,9.78-5.47,5.47c-.18.18-.3.4-.36.64h0s-5.47,21.9-5.47,21.9c-.12.47.02.97.36,1.31s.84.48,1.31.36l21.9-5.47h0c.24-.06.46-.18.64-.36l5.47-5.47,9.78-9.78,26.69-26.69,5.47-5.47,3.89-3.89c3.14-3.14,3.14-8.25,0-11.39ZM17.72,50.14l9.78-9.78,25.71-25.71,3.52,3.52L16.95,57.95c-.03-.15-.06-.32-.09-.52-.11-.75-.27-1.78-1.19-2.7h0c-.46-.46-.99-.78-1.54-1l3.59-3.59ZM14.08,73.04l-6.39,1.6,1.6-6.39,3.04-12.14c.54.08,1.05.25,1.38.59h0c.27.27.32.55.41,1.16.11.72.26,1.72,1.08,2.68.98,1.14,2.1,1.32,2.92,1.46.68.11,1.05.19,1.47.59.44.43.53.83.67,1.57.14.77.33,1.8,1.23,2.7.11.11.22.21.35.31.95.76,1.88.89,2.57.98.57.08.83.12,1.12.37.39.33.58.9.68,1.51l-12.13,3.03ZM19.39,59.41L58.68,20.12l3.52,3.52L22.85,63c-.17-.72-.48-1.57-1.28-2.36-.02-.02-.04-.04-.05-.05-.73-.71-1.47-1.01-2.12-1.17ZM41.97,54.83l-9.78,9.78-3.6,3.6c-.26-.67-.66-1.31-1.27-1.82-.92-.78-1.86-.91-2.54-1-.13-.02-.25-.03-.35-.05l39.74-39.74,3.52,3.52-25.71,25.71ZM69.63,27.16l-14.47-14.47,3.52-3.52,14.47,14.47-3.52,3.52ZM75.11,21.69l-14.47-14.47,2.91-2.91c2.06-2.06,5.42-2.06,7.48,0l6.99,6.99c2.06,2.06,2.06,5.42,0,7.48l-2.91,2.91Z"/>
  </g>
</svg>
